<?xml version="1.0" encoding="UTF-8"?>
<svg version="1.1" xmlns="http://www.w3.org/2000/svg" width="32" height="32">
<path d="M0 0 C1.79244141 0.01740234 1.79244141 0.01740234 3.62109375 0.03515625 C5.41740234 0.04869141 5.41740234 0.04869141 7.25 0.0625 C8.17683594 0.07410156 9.10367187 0.08570313 10.05859375 0.09765625 C11.49091729 4.0091185 12.91481305 7.92351522 14.33105469 11.84082031 C14.81378678 13.17238334 15.29879239 14.50312448 15.78613281 15.83300781 C16.48715205 17.74721954 17.17988076 19.66426018 17.87109375 21.58203125 C18.29003906 22.73413086 18.70898438 23.88623047 19.140625 25.07324219 C20.05859375 28.09765625 20.05859375 28.09765625 20.05859375 32.09765625 C9.49859375 32.09765625 -1.06140625 32.09765625 -11.94140625 32.09765625 C-10.81588645 20.84245822 -10.81588645 20.84245822 -9.34765625 16.5625 C-9.03957031 15.65177734 -8.73148438 14.74105469 -8.4140625 13.80273438 C-7.93259766 12.4327832 -7.93259766 12.4327832 -7.44140625 11.03515625 C-7.12042969 10.08705078 -6.79945313 9.13894531 -6.46875 8.16210938 C-3.71423827 0.12331468 -3.71423827 0.12331468 0 0 Z M3.05859375 14.09765625 C2.06859375 17.39765625 1.07859375 20.69765625 0.05859375 24.09765625 C2.03859375 23.76765625 4.01859375 23.43765625 6.05859375 23.09765625 C5.39859375 20.12765625 4.73859375 17.15765625 4.05859375 14.09765625 C3.72859375 14.09765625 3.39859375 14.09765625 3.05859375 14.09765625 Z " fill="#2D1368" transform="translate(11.94140625,-0.09765625)"/>
<path d="M0 0 C0.99 0 1.98 0 3 0 C3.67548578 2.05962852 4.34004312 4.12284322 5 6.1875 C5.37125 7.33605469 5.7425 8.48460937 6.125 9.66796875 C6.90630553 12.64320812 7.18363306 14.95283896 7 18 C6.36191406 18.26554687 5.72382813 18.53109375 5.06640625 18.8046875 C4.24011719 19.15789063 3.41382813 19.51109375 2.5625 19.875 C1.73878906 20.22304688 0.91507813 20.57109375 0.06640625 20.9296875 C-2.15746715 21.8244937 -2.15746715 21.8244937 -3 24 C-1.700625 23.5359375 -1.700625 23.5359375 -0.375 23.0625 C2.76150738 22.07508101 5.75067413 21.46418941 9 21 C9.33 22.65 9.66 24.3 10 26 C4.39 26 -1.22 26 -7 26 C-5.46293719 17.05708912 -2.79888221 8.61030177 0 0 Z M1 8 C0.01 11.3 -0.98 14.6 -2 18 C-0.02 17.67 1.96 17.34 4 17 C3.34 14.03 2.68 11.06 2 8 C1.67 8 1.34 8 1 8 Z " fill="#020106" transform="translate(14,6)"/>
<path d="M0 0 C0.99 0 1.98 0 3 0 C4.43232354 3.91146225 5.8562193 7.82585897 7.27246094 11.74316406 C7.75519303 13.07472709 8.24019864 14.40546823 8.72753906 15.73535156 C9.4285583 17.64956329 10.12128701 19.56660393 10.8125 21.484375 C11.23144531 22.63647461 11.65039062 23.78857422 12.08203125 24.97558594 C13 28 13 28 13 32 C12.34 32 11.68 32 11 32 C10.80889648 31.44650879 10.61779297 30.89301758 10.42089844 30.32275391 C5.83104388 16.88615789 5.83104388 16.88615789 0.62890625 3.6796875 C0 2 0 2 0 0 Z " fill="#020105" transform="translate(19,0)"/>
<path d="M0 0 C0.66 0 1.32 0 2 0 C-0.67243814 10.8679151 -4.40643851 21.41101147 -8 32 C-8.33 32 -8.66 32 -9 32 C-8.60169807 24.51456549 -6.97877816 17.9905696 -4.5 10.9375 C-4.17902344 9.98939453 -3.85804688 9.04128906 -3.52734375 8.06445312 C-1.16230746 1.16230746 -1.16230746 1.16230746 0 0 Z " fill="#020106" transform="translate(9,0)"/>
</svg>
